{"title":"WWE Wrestlemania 28 1st April 2012 HDTV BZINGAZ.mp4","uid":7153384,"size":820684055,"categoryP":"video","categoryS":"tv_shows","magnet":"?xt=urn:btih:7bda61580ff8a90b9815fc01c0275f4999264731&amp;dn=WWE+Wrestlemania+28+1st+April+2012+HDTV+BZINGAZ.mp4&amp;tr=udp%3A%2F%2Ftracker.openbittorrent.com%3A80&amp;tr=udp%3A%2F%2Fopen.demonii.com%3A1337&amp;tr=udp%3A%2F%2Ftracker.coppersurfer.tk%3A6969&amp;tr=udp%3A%2F%2Fexodus.desync.com%3A6969","seeders":0,"leechers":1,"uploader":"bzingaz","files":-1,"time":1333380789,"description":"WWE Wrestlemania 28 1st April 2012 HDTV BZINGAZ in mp4 format.. enjoy and seed..\n\nScreenshots:\n &lt;a href=&quot;\nhttp://image.bayimg.com/janbgaadm.jpg&quot; rel=&quot;nofollow&quot; target=&quot;_NEW&quot;&gt;\nhttp://image.bayimg.com/janbgaadm.jpg&lt;/a&gt;\n &lt;a href=&quot;\nhttp://image.bayimg.com/janboaadm.jpg&quot; rel=&quot;nofollow&quot; target=&quot;_NEW&quot;&gt;\nhttp://image.bayimg.com/janboaadm.jpg&lt;/a&gt;\n\n\n\nFormat                           : MPEG-4\nFormat profile                   : Base Media\nCodec ID                         : isom\nFile size                        : 783 MiB\nDuration                         : 3h 58mn\n\nVideo\nID                               : 1\nFormat                           : AVC\nFormat/Info                      : Advanced Video Codec\nFormat profile                   : &lt;a class=&quot;__cf_email__&quot; href=&quot;/cdn-cgi/l/email-protection&quot; data-cfemail=&quot;f2b09381979e9b9c97b2bec1dcc2&quot;&gt;[email&amp;#160;protected]&lt;/a&gt;&lt;script cf-hash='f9e31' type=&quot;text/javascript&quot;&gt;\n/* &lt;![CDATA[ */!function(){try{var t=&quot;currentScript&quot;in document?document.currentScript:function(){for(var t=document.getElementsByTagName(&quot;script&quot;),e=t.length;e--;)if(t[e].getAttribute(&quot;cf-hash&quot;))return t[e]}();if(t&amp;&amp;t.previousSibling){var e,r,n,i,c=t.previousSibling,a=c.getAttribute(&quot;data-cfemail&quot;);if(a){for(e=&quot;&quot;,r=parseInt(a.substr(0,2),16),n=2;a.length-n;n+=2)i=parseInt(a.substr(n,2),16)^r,e+=String.fromCharCode(i);e=document.createTextNode(e),c.parentNode.replaceChild(e,c)}}}catch(u){}}();/* ]]&gt; */&lt;/script&gt;\nFormat settings, CABAC           : No\nFormat settings, ReFrames        : 1 frame\nCodec ID                         : avc1\nCodec ID/Info                    : Advanced Video Coding\nDuration                         : 3h 58mn\nBit rate mode                    : Variable\nBit rate                         : 360 Kbps\nWidth                            : 512 pixels\nHeight                           : 288 pixels\nDisplay aspect ratio             : 16:9\nFrame rate mode                  : Constant\nFrame rate                       : 29.970 fps\nColor space                      : YUV\nChroma subsampling               : 4:2:0\nBit depth                        : 8 bits\nScan type                        : Progressive\nBits/(Pixel*Frame)               : 0.081\nStream size                      : 611 MiB (78%)\n\n\nAudio\nID                               : 2\nFormat                           : AAC\nFormat/Info                      : Advanced Audio Codec\nFormat profile                   : LC\nCodec ID                         : 40\nDuration                         : 3h 58mn\nBit rate mode                    : Variable\nBit rate                         : 96.0 Kbps\nChannel(s)                       : 2 channels\nChannel positions                : Front: L R\nSampling rate                    : 44.1 KHz\nCompression mode                 : Lossy\nStream size                      : 163 MiB (21%)\n\n\n\nMatches:\n\n\nONCE IN A LIFETIME\nJohn Cena vs. The Rock\n\nTHE END OF AN ERA HELL IN A CELL MATCH (Shawn Michaels as Special Guest Referee)\nTriple H vs. The Undertaker\n\nWWE CHAMPIONSHIP MATCH\nCM Punk (c) vs. Chris Jericho\n\nWORLD HEAVYWEIGHT CHAMPIONSHIP MATCH\nDaniel Bryan (c) vs. Sheamus\n\nWWE INTERCONTINENTAL CHAMPIONSHIP MATCH\nCody Rhodes (c) vs. Big Show\n\nRandy Orton vs. Kane\n\n12-MAN TAG TEAM MATCH (To determine General Manager of both RAW and SmackDown)\nTeam Teddy (Santino Marella, R-Truth, Kofi Kingsotn, Zack Ryder,\nThe Great Khali and Booker T)\nvs.\nTeam Johnny (David Otunga, Mark Henry, Dolph Ziggler, Jack Swagger,\nThe Miz and Drew McIntyre)\n\nKelly Kelly and Maria Menounos vs. Beth Phoenix and Eve Torres\n\n\nENJOY!\t","torrent":{"xt":"urn:btih:7bda61580ff8a90b9815fc01c0275f4999264731","amp;dn":"WWE+Wrestlemania+28+1st+April+2012+HDTV+BZINGAZ.mp4","amp;tr":["udp%3A%2F%2Ftracker.openbittorrent.com%3A80","udp%3A%2F%2Fopen.demonii.com%3A1337","udp%3A%2F%2Ftracker.coppersurfer.tk%3A6969","udp%3A%2F%2Fexodus.desync.com%3A6969"],"infoHash":"7bda61580ff8a90b9815fc01c0275f4999264731","infoHashBuffer":{"type":"Buffer","data":[123,218,97,88,15,248,169,11,152,21,252,1,192,39,95,73,153,38,71,49]},"announce":[],"urlList":[]}}